<svg xmlns="http://www.w3.org/2000/svg" width="150" height="px" viewBox="0 0 151 42"><path style="stroke:none;fill-rule:nonzero;fill:#4c1e1c;fill-opacity:1" d="M65.383 36.195h-4.465c-1.355 0-2.457-1.117-2.457-2.504V21.066h6.687c3.024 0 4.82 1.528 4.82 3.918 0 1.836-1.077 3.024-2.515 3.453 1.734.364 2.856 1.918 2.856 3.641 0 2.504-1.797 4.117-4.926 4.117m-.93-12.18h-2.371v3.172h2.371c1.184 0 1.836-.539 1.836-1.574 0-1.039-.652-1.597-1.836-1.597m.254 5.867h-2.625v3.34h2.66c1.207 0 1.91-.567 1.91-1.641 0-1.078-.746-1.7-1.945-1.7M78.11 36.367c-3.47 0-6.094-2.37-6.094-6.187 0-3.813 2.687-6.184 6.132-6.184 3.47 0 6.137 2.371 6.137 6.184 0 3.816-2.71 6.187-6.176 6.187m0-3.187c1.29 0 2.493-.977 2.493-3 0-2.047-1.184-2.992-2.454-2.992-1.308 0-2.449.945-2.449 2.992 0 2.023 1.098 3 2.41 3M91.344 36.367c-3.153 0-5.266-1.785-5.438-4.113h3.578c.079.836.825 1.398 1.817 1.398.93 0 1.422-.43 1.422-.968 0-1.938-6.434-.543-6.434-4.961 0-2.043 1.711-3.727 4.8-3.727 3.044 0 4.74 1.727 4.97 4.098h-3.336c-.11-.82-.727-1.36-1.739-1.36-.847 0-1.312.344-1.312.926 0 1.918 6.387.559 6.45 5.047 0 2.086-1.817 3.66-4.778 3.66M103.352 24.04c1.546 0 2.73.6 3.449 1.507v-1.375h3.617v17.754h-1.008c-1.441 0-2.61-1.192-2.61-2.656v-4.583c-.76.95-1.925 1.657-3.491 1.657-2.899 0-5.352-2.477-5.352-6.14 0-3.661 2.453-6.165 5.395-6.165m.863 3.191c-1.2 0-2.574.946-2.574 2.973s1.375 2.95 2.574 2.95c1.23 0 2.586-.95 2.586-2.973 0-2.024-1.356-2.95-2.586-2.95M125.023 36.195h-3.613V34.56c-.719 1.035-1.988 1.765-3.578 1.765-2.727 0-4.562-1.918-4.562-5.133v-7.02h3.59v6.524c0 1.645.91 2.547 2.265 2.547 1.398 0 2.285-.902 2.285-2.547v-6.523h3.613ZM133.207 36.367c-3.469 0-5.969-2.37-5.969-6.187 0-3.813 2.457-6.184 5.969-6.184 3.445 0 5.879 2.328 5.879 5.992 0 .34-.02.707-.063 1.078h-8.183c.125 1.57 1.078 2.305 2.242 2.305 1.016 0 1.582-.516 1.879-1.168h3.848c-.567 2.356-2.66 4.164-5.602 4.164m-2.348-7.347h4.524c0-1.317-1.016-2.075-2.219-2.075-1.184 0-2.094.739-2.305 2.075M146.242 36.367c-3.148 0-5.27-1.785-5.433-4.113h3.57c.086.836.824 1.398 1.824 1.398.93 0 1.414-.43 1.414-.968 0-1.938-6.43-.543-6.43-4.961 0-2.043 1.715-3.727 4.805-3.727 3.043 0 4.735 1.727 4.969 4.098h-3.344c-.105-.82-.719-1.36-1.734-1.36-.844 0-1.313.344-1.313.926 0 1.918 6.39.559 6.453 5.047 0 2.086-1.816 3.66-4.78 3.66M65.383 15.129h-4.465c-1.355 0-2.457-1.117-2.457-2.504V0h6.687c3.024 0 4.82 1.527 4.82 3.926 0 1.828-1.077 3.015-2.515 3.449 1.734.367 2.856 1.918 2.856 3.64 0 2.5-1.797 4.114-4.926 4.114m-.93-12.176h-2.371v3.168h2.371c1.184 0 1.836-.539 1.836-1.57 0-1.035-.652-1.598-1.836-1.598m.254 5.863h-2.625v3.34h2.66c1.207 0 1.91-.558 1.91-1.64 0-1.075-.746-1.7-1.945-1.7M77.219 2.93c1.758 0 3.008.82 3.64 1.875v-1.7h3.614V15.13h-3.614v-1.7c-.66 1.055-1.902 1.872-3.664 1.872-2.875 0-5.18-2.406-5.18-6.207 0-3.793 2.305-6.164 5.204-6.164m1.054 3.215c-1.347 0-2.574 1.03-2.574 2.949 0 1.922 1.227 3 2.574 3 1.38 0 2.586-1.055 2.586-2.977 0-1.918-1.207-2.972-2.586-2.972M95.574 8.598c0-1.633-.886-2.54-2.261-2.54-1.38 0-2.266.907-2.266 2.54v6.53h-3.613V3.106h3.613V4.7c.719-1.011 1.988-1.722 3.578-1.722 2.727 0 4.543 1.894 4.543 5.125v7.027h-3.594ZM107.219 2.93c2.965 0 5.058 1.664 5.672 4.527h-3.848c-.297-.84-.887-1.379-1.887-1.379-1.285 0-2.176 1.035-2.176 3.04 0 2.007.891 3.038 2.176 3.038 1 0 1.567-.496 1.887-1.379h3.848c-.614 2.782-2.707 4.524-5.672 4.524-3.465 0-5.922-2.371-5.922-6.184 0-3.797 2.457-6.187 5.922-6.187M120.64 15.305c-3.472 0-6.093-2.371-6.093-6.184 0-3.816 2.683-6.187 6.137-6.187 3.468 0 6.132 2.37 6.132 6.187 0 3.813-2.707 6.184-6.175 6.184m0-3.192c1.289 0 2.496-.968 2.496-2.992 0-2.05-1.184-3-2.453-3-1.317 0-2.457.95-2.457 3 0 2.024 1.101 2.992 2.414 2.992M135.707 7.438c1.68 0 2.918.906 3.39 2.109V4.754h.66v10.46h-.66v-2.038c-.445 1.203-1.636 2.152-3.39 2.152-2.238 0-3.86-1.539-3.86-3.96 0-2.434 1.622-3.93 3.86-3.93m.09.554c-1.934 0-3.274 1.258-3.274 3.375 0 2.121 1.34 3.395 3.274 3.395 1.871 0 3.3-1.317 3.3-3.395 0-2.05-1.429-3.375-3.3-3.375M146.023 15.328c-2.242 0-3.89-1.504-3.89-3.96 0-2.446 1.62-3.93 3.89-3.93 2.403 0 3.723 1.64 3.723 3.421 0 .34 0 .508-.023.766h-6.914c.058 2.129 1.562 3.148 3.214 3.148 1.57 0 2.711-.804 2.977-2.078h.691c-.308 1.512-1.62 2.633-3.668 2.633m-3.214-4.23h6.28c.102-2.133-1.46-3.121-3.081-3.121-1.637 0-3.125 1-3.2 3.12"/><path style="stroke:none;fill-rule:nonzero;fill:#823a28;fill-opacity:1" d="M16.535 4.594c-.176.05-.348.11-.523.176 2.726.457 6.304 1.574 8.851 4.324 2.16 2.332 3.2 5.445 3.078 9.25.266-.059.54-.11.817-.145.148-3.875-.793-7.008-2.805-9.324-3.562-4.098-9.355-4.281-9.418-4.281m4.945-.965a92.95 92.95 0 0 0-1.57.254c2.113.57 4.824 1.742 6.918 4.144 2.207 2.532 3.254 5.91 3.125 10.051.23-.02.453-.027.676-.035.34-4.152-.535-7.563-2.621-10.14-1.887-2.34-4.457-3.598-6.528-4.274M13.93 5.78C9.938 8.13 6.645 12.328 6.19 12.926h-.003c-.7.91-2.07 4.254-2.891 6.386.605-.097 1.098.098 1.492.364.281-1.461.793-2.95 1.723-3.223.37-.11.949-.07 1.593.738.329.41.473.907.426 1.473-.05.535-.277 1.078-.574 1.59.652.035 1.273.277 1.606 1.031.539 1.238 4.488 1.742 6.617 2.012 2.402.305 7.586-2.188 9.36-3.867.304-.293.714-.532 1.183-.72.195-3.64-.707-6.585-2.711-8.75-2.934-3.167-7.559-3.976-10.082-4.179M25.504 3.25c-.465.012-.938.043-1.422.078 1.668.813 3.406 2.004 4.828 3.758 2.281 2.816 3.254 6.5 2.914 10.95.414.003.809.019 1.164.042.813-8.984-3.8-13.039-7.484-14.828m17.965 14.61c-.047-.626-.164-2.278-1.864-4.672C39.668 10.44 36.88 7 32.457 4.668c-.105-.059-.219-.102-.328-.156 2.73 2.84 5.031 7.363 4.363 14.426 1.711.824 4.219 2.16 4.942 2.664.53-.024 1.957-2.832 2.046-3.61-.007-.055-.011-.133-.011-.133M29.242 3.543c-.406-.082-.812-.14-1.23-.188 3.476 2.383 6.879 6.79 6.168 14.817.414.047.699.09.789.113.086.024.215.074.367.133.656-8.184-2.895-12.594-6.094-14.875"/><path style="stroke:none;fill-rule:nonzero;fill:#d9bd78;fill-opacity:1" d="M11.379 29.547c-.113-.07-.195-.09-.25-.059-.504.297-.926.922-1.152 1.64.668-.237 1.539-.55 2.078-.702-.102-.266-.352-.684-.676-.88M12.957 30.473c-.285.101-.531.945-.648 1.652a21.237 21.237 0 0 1 1.925-1.055c-.058-.23-.152-.422-.308-.539-.246-.176-.598-.195-.969-.058M20.559 32.066c-.508.059-1.215 1.262-1.57 2.067.745-.281 1.827-.54 2.515-.688.016-.12.035-.25.035-.355 0-.348-.074-.625-.227-.8-.164-.185-.414-.263-.753-.224M18.719 31.367c-.188-.117-.336-.14-.442-.078-.59.379-1.035 1.156-1.222 2.023.726-.292 1.855-.738 2.406-.906-.05-.238-.332-.761-.742-1.039M45.957 27.719c.012.015.504.351.516.363.02.016.058 0 .074.016.148-.258.488-1.52 1.312-1.871a4.727 4.727 0 0 0-.886-.938c-.864.758-1.004 2.336-1.012 2.352ZM33.227 31.402v-.02c0-.226-.372-.66-.707-.956-.368.215-1.348.86-1.739 1.77.645-.13 1.828-.395 2.356-.696.086-.047.09-.082.09-.098M1.531 21.215c.282-.395.547-.762.742-1.027-.414-1.403-.941-2.286-1.246-2.329-.093-.015-.336.118-.66.692-.12.219-.18.437-.18.656 0 .121.016.242.051.367.176.613.73 1.188 1.293 1.64M44.902 26.902c.098.078.47.352.559.434.172-.5.215-1.828 1.09-2.434a8.307 8.307 0 0 0-.856-.718c-.75.8-.785 2.453-.785 2.476ZM7.477 18.465a.908.908 0 0 0-.184-.563c-.234-.293-.422-.402-.496-.379-.336.094-.844 1.309-1.106 3.165a1.33 1.33 0 0 0-.015.207c0 .171.039.293.078.394.707-.703 1.723-1.922 1.723-2.824M12.66 27.746c-.012.09-.023.172-.055.297l-.078.363a1.169 1.169 0 0 1-.246.473c.156.152.305.32.43.512.66-.211 1.316-.133 1.82.23.211.156.371.363.508.59.367-.352.836-.781 1.207-1.102a12.658 12.658 0 0 1-.121-.832c-1.117-.074-2.43-.226-3.465-.53M47.992 29.215c.188.203.32.375.356.433.043.063.09.106.148.149.024.015.04.031.055.043.02.012.031.031.05.035.067.027.141.043.212.043.046 0 .082-.035.132-.047h.02c.004-.004.004-.012.012-.012.058-.02.125-.02.18-.062a.474.474 0 0 0 .148-.5v-.016c-.012-.043-.063-.504-.266-1.074-.434.234-.816.684-1.047 1.008M44.441 23.324c-.765.817-.754 2.52-.754 2.54l.004.245c.192.106.383.215.567.332.031-.507.187-1.824.89-2.652-.226-.16-.468-.316-.707-.465M43.066 22.406c-.921.922-.734 2.836-.734 2.856l.012.226c.226.09.46.184.683.293.008-.39.262-1.832 1.004-2.765-.156-.203-.965-.61-.965-.61M34.652 31.79a4.2 4.2 0 0 0-.484-.458v-.008c-.047-.031-.09-.062-.133-.082-.004-.008-.012-.008-.015-.012a.482.482 0 0 0-.114-.05c-.004-.004-.015-.004-.02-.008a.507.507 0 0 0-.1-.012h-.028a.362.362 0 0 0-.117.035c-.008.008-.024.024-.036.028-.37.25-.761.965-1.027 1.55.66-.277 1.621-.613 2.238-.82-.058-.058-.105-.101-.164-.164M47.078 28.406l.059.07c.129.087.25.176.367.27.238-.562.7-.883 1.266-1.172a3.817 3.817 0 0 0-.426-.664c-.797.25-1.133 1.149-1.266 1.496M34.707 33.086c.355-.344.742-.684 1.05-.945-.218-.223-.515-.446-.694-.395-.086.145-.223.7-.356 1.34"/><path style="stroke:none;fill-rule:nonzero;fill:#d9bd78;fill-opacity:1" d="M41.52 22.71a.96.96 0 0 1-.489-.089c-.011-.004-.023-.012-.027-.012-.055-.027-.098-.054-.129-.074-1.125-.773-5.531-3.012-6.16-3.176-.89-.226-6.867-.629-8.469.891-1.945 1.855-7.406 4.496-10.2 4.145-3.507-.45-6.718-.985-7.448-2.649a.483.483 0 0 0-.11-.164c-.015-.016-.031-.031-.054-.043-.032-.027-.059-.055-.094-.074-.027-.012-.055-.024-.086-.031a.487.487 0 0 0-.106-.04c-.03-.011-.07-.015-.105-.019a1.213 1.213 0 0 0-.125-.016h-.266c-.043.004-.086.004-.125.008-.054.008-.113.012-.172.02a1.283 1.283 0 0 0-.12.015c-.075.008-.145.02-.223.032-.024.003-.055.011-.074.015-.051.012-.098.016-.145.028-.148 1.238-1.238 2.16-2.223 2.988-.504.422-.984.82-1.238 1.187-.668.98-1.14 2.18-1.371 2.754 0 0-.149.367-.152.367-.246.45-.746.727-.907.809l.082-.008-.125.031a.117.117 0 0 0 .043-.023l-.64.094s-.102-.094-.207-.188a8.709 8.709 0 0 0-.055.875c0 .078.012.117.012.168l.886.219c.262-.09 1.16-.707 1.696-1.586.722-1.184 2.672-2.883 4.433-2.988.141-.012 3.48-.352 5.559.402 1.523.559 4.805.735 6.687.668-.406-.203-.98-.453-1.273-.484a.553.553 0 0 1-.473-.551c0-.02.008-.043.008-.063a.535.535 0 0 1 .582-.492c.524.059 1.313.438 1.66.61.075.035.137.074.16.086l.176.148c.067.09.114.184.153.293.004.016.011.031.015.047a2.47 2.47 0 0 1 .113.734c0 .48-.101.953-.167 1.223-.09.344-.407 1.363-1.036 1.91.012.008.016.012.024.016.285.203.555.523.762.863.168-.11.335-.191.511-.207.696-.078 1.102.195 1.313.45.058.066.101.151.148.233.305-.789.617-1.707.824-2.53.176-.731.782-1.458 1.32-2.095.11-.132.243-.292.372-.453a5.19 5.19 0 0 0 .133-.175.132.132 0 0 0 .035-.055.907.907 0 0 0 .086-.117c.011-.016.023-.035.039-.051.02-.04.035-.066.05-.098.012-.015.024-.031.028-.043.016-.043.031-.078.039-.105v.012c0-.008.004-.016.004-.028.02-.289.242-.527.52-.527.288 0 .523.219.53.515.009.16-.03.317-.081.473 1.004-.234 2.539-.543 3.207-.43.808.137 2.476.137 2.484.137 0 0 2.16-.035 2.242-.035.223-.043.434-.082.649-.117-.024-.027-.04-.055-.059-.082a8.266 8.266 0 0 1-.91-1.371.575.575 0 0 1 .219-.758.523.523 0 0 1 .718.223c.043.085.102.175.149.261.09.157.18.305.281.457.11.16.223.32.352.48a4.024 4.024 0 0 1 .406.583c.332.527.5 1.031.5 1.508 0 .207-.031.41-.094.601-.426 1.293-2.09 1.79-3.226 2.051l.32.187c.14.082.227.176.297.27.012-.004.015-.012.027-.016.578-.328 1.125.188 1.508.598.309 0 .855.266 1.203.516.184-.196.418-.453.625-.688.824-.906 1.852-2.039 2.461-2.422.098-.058.191-.152.203-.394v-.051c0-.508-.367-1.203-.687-1.453-.36-.281-.473-.598-.473-.883 0-.11.023-.207.043-.305.043-.191.117-.363.176-.488.09-.195.164-.387.183-.59h.008c0-.015.004-.023.004-.039a.54.54 0 0 1 .566-.52c.008 0 .02.012.032.012a.54.54 0 0 1 .46.543v.032a2.33 2.33 0 0 1-.085.468l.316-.078c.332-.09 1.008.238 1.828.336.02-.394-.172-1.988.93-3.137-.07.059-.352-.214-.426-.168-.215.141-.597.672-.765.688"/></svg>